{
	"asset":{
		"generator":"Khronos glTF Blender I/O v3.6.27",
		"version":"2.0"
	},
	"extensionsUsed":[
		"KHR_materials_specular",
		"KHR_materials_ior"
	],
	"scene":0,
	"scenes":[
		{
			"name":"Scene",
			"nodes":[
				0
			]
		}
	],
	"nodes":[
		{
			"mesh":0,
			"name":"Profeta 1 - Isaias"
		}
	],
	"materials":[
		{
			"alphaMode":"BLEND",
			"doubleSided":true,
			"extensions":{
				"KHR_materials_specular":{
					"specularColorFactor":[
						0,
						0,
						0
					]
				},
				"KHR_materials_ior":{
					"ior":1.4500000476837158
				}
			},
			"name":"Profeta_Isaias",
			"normalTexture":{
				"index":0
			},
			"pbrMetallicRoughness":{
				"baseColorTexture":{
					"index":1
				},
				"metallicFactor":0
			}
		}
	],
	"meshes":[
		{
			"name":"Profeta 1 - Isaias",
			"primitives":[
				{
					"attributes":{
						"POSITION":0,
						"NORMAL":1,
						"TEXCOORD_0":2
					},
					"indices":3,
					"material":0
				}
			]
		}
	],
	"textures":[
		{
			"sampler":0,
			"source":0
		},
		{
			"sampler":0,
			"source":1
		}
	],
	"images":[
		{
			"mimeType":"image/png",
			"name":"Profeta 1 - Isaias - NORMAL",
			"uri":"Profeta%201%20-%20Isaias%20-%20NORMAL.png"
		},
		{
			"mimeType":"image/png",
			"name":"Profeta 1 - Isaias - DIFF",
			"uri":"Profeta%201%20-%20Isaias%20-%20DIFF.png"
		}
	],
	"accessors":[
		{
			"bufferView":0,
			"componentType":5126,
			"count":7155,
			"max":[
				0.3654778003692627,
				2.1278774738311768,
				0.33115893602371216
			],
			"min":[
				-0.3654778003692627,
				0.007878495380282402,
				-0.33115899562835693
			],
			"type":"VEC3"
		},
		{
			"bufferView":1,
			"componentType":5126,
			"count":7155,
			"type":"VEC3"
		},
		{
			"bufferView":2,
			"componentType":5126,
			"count":7155,
			"type":"VEC2"
		},
		{
			"bufferView":3,
			"componentType":5123,
			"count":36321,
			"type":"SCALAR"
		}
	],
	"bufferViews":[
		{
			"buffer":0,
			"byteLength":85860,
			"byteOffset":0,
			"target":34962
		},
		{
			"buffer":0,
			"byteLength":85860,
			"byteOffset":85860,
			"target":34962
		},
		{
			"buffer":0,
			"byteLength":57240,
			"byteOffset":171720,
			"target":34962
		},
		{
			"buffer":0,
			"byteLength":72642,
			"byteOffset":228960,
			"target":34963
		}
	],
	"samplers":[
		{
			"magFilter":9729,
			"minFilter":9987
		}
	],
	"buffers":[
		{
			"byteLength":301604,
			"uri":"Profeta%201%20-%20Isaias.bin"
		}
	]
}
